<svg width="45" height="45" viewBox="0 0 45 45" fill="none" xmlns="http://www.w3.org/2000/svg">
<g id="Icon">
<path id="Vector" d="M15.2014 18.7616L24.3814 9.58158C24.7561 9.20908 25.263 9 25.7914 9C26.3197 9 26.8266 9.20908 27.2014 9.58158C27.3888 9.76751 27.5376 9.98871 27.6392 10.2324C27.7407 10.4762 27.793 10.7376 27.793 11.0016C27.793 11.2656 27.7407 11.527 27.6392 11.7707C27.5376 12.0145 27.3888 12.2357 27.2014 12.4216L18.0014 21.5816C17.8139 21.7675 17.6651 21.9887 17.5636 22.2324C17.4621 22.4762 17.4098 22.7376 17.4098 23.0016C17.4098 23.2656 17.4621 23.527 17.5636 23.7707C17.6651 24.0145 17.8139 24.2357 18.0014 24.4216L27.2014 33.5816C27.578 33.9555 27.7906 34.4638 27.7925 34.9945C27.7944 35.5252 27.5853 36.035 27.2114 36.4116C26.8374 36.7882 26.3292 37.0008 25.7984 37.0027C25.2677 37.0046 24.758 36.7955 24.3814 36.4216L15.2014 27.2416C14.0778 26.1166 13.4466 24.5916 13.4466 23.0016C13.4466 21.4116 14.0778 19.8866 15.2014 18.7616Z" fill="white"/>
</g>
</svg>
