<svg width="31" height="36" viewBox="0 0 31 36" fill="none" xmlns="http://www.w3.org/2000/svg">
<g id="Icon">
<path id="Vector" d="M22.715 12.0516C25.0497 13.7197 27.91 14.7012 30.9991 14.7012V8.75994C30.4144 8.76006 29.8313 8.69906 29.2593 8.57794V13.2546C26.1705 13.2546 23.3106 12.2732 20.9753 10.6052V22.7297C20.9753 28.7951 16.0558 33.7116 9.98784 33.7116C7.72372 33.7116 5.61922 33.0274 3.87109 31.8541C5.86634 33.8932 8.64884 35.1581 11.7271 35.1581C17.7956 35.1581 22.7152 30.2416 22.7152 24.1759V12.0516H22.715ZM24.8612 6.05756C23.668 4.75469 22.8845 3.07094 22.715 1.20944V0.445312H21.0663C21.4813 2.81119 22.897 4.83244 24.8612 6.05756ZM7.70909 27.1998C7.04246 26.3262 6.6821 25.2574 6.68372 24.1586C6.68372 21.3846 8.93384 19.1353 11.71 19.1353C12.2272 19.1351 12.7415 19.2144 13.2346 19.3707V13.2966C12.6583 13.2177 12.0768 13.1841 11.4956 13.1964V17.9242C11.0023 17.7678 10.4877 17.6885 9.97022 17.6889C7.19422 17.6889 4.94422 19.9379 4.94422 22.7123C4.94422 24.6741 6.06884 26.3724 7.70909 27.1998Z" fill="#F5486A"/>
<path id="Vector_2" d="M20.974 10.6051C23.3094 12.2731 26.169 13.2544 29.258 13.2544V8.57781C27.5338 8.21069 26.0074 7.31019 24.8598 6.05756C22.8954 4.83231 21.48 2.81106 21.065 0.445312H16.7347V24.1757C16.7248 26.9422 14.4785 29.1822 11.7084 29.1822C10.0762 29.1822 8.62591 28.4046 7.70753 27.1997C6.06753 26.3724 4.94278 24.6739 4.94278 22.7124C4.94278 19.9383 7.19278 17.6891 9.96878 17.6891C10.5007 17.6891 11.0133 17.7718 11.4942 17.9243V13.1966C5.53266 13.3197 0.738281 18.1882 0.738281 24.1758C0.738281 27.1648 1.93216 29.8744 3.86991 31.8543C5.61803 33.0274 7.72241 33.7118 9.98666 33.7118C16.0548 33.7118 20.9742 28.7949 20.9742 22.7297V10.6052L20.974 10.6051Z" fill="#F5486A"/>
</g>
</svg>
