<svg width="32" height="32" viewBox="0 0 32 32" fill="none" xmlns="http://www.w3.org/2000/svg">
<g id="Icon">
<path id="Vector" d="M30.8121 3.29747C30.6314 2.66008 30.2788 2.079 29.7895 1.6121C29.3002 1.1452 28.6913 0.808771 28.0234 0.636322C25.5782 0 15.7377 0 15.7377 0C15.7377 0 5.89685 0.0193103 3.45196 0.655632C2.78409 0.82811 2.17522 1.16455 1.68598 1.63145C1.19674 2.09835 0.844205 2.67941 0.663474 3.31678C-0.076141 7.46299 -0.363084 13.7804 0.683708 17.7606C0.864439 18.3979 1.21698 18.979 1.70622 19.4459C2.19546 19.9128 2.80433 20.2492 3.4722 20.4217C5.91728 21.058 15.7579 21.058 15.7579 21.058C15.7579 21.058 25.5986 21.058 28.0437 20.4217C28.7115 20.2492 29.3204 19.9128 29.8096 19.4459C30.2989 18.979 30.6514 18.3979 30.8322 17.7606C31.612 13.6086 31.8525 7.29508 30.8119 3.29766L30.8121 3.29747Z" fill="#F5486A"/>
<path id="Vector_2" d="M12.6055 15.0405L20.769 10.5282L12.6055 6.01562V15.0405Z" fill="white"/>
</g>
</svg>
