<svg width="54" height="44" viewBox="0 0 54 44" fill="none" xmlns="http://www.w3.org/2000/svg">
<g id="fa-solid:shipping-fast" clip-path="url(#clip0_1_9694)">
<path id="Vector" d="M52.65 29.7H51.3V20.5791C51.3 19.5075 50.8697 18.4781 50.1103 17.7188L41.6813 9.28969C40.9219 8.53031 39.8925 8.1 38.8209 8.1H35.1V4.05C35.1 1.81406 33.2859 0 31.05 0H9.45C7.21406 0 5.4 1.81406 5.4 4.05V8.1H0.675C0.30375 8.1 0 8.40375 0 8.775V10.125C0 10.4963 0.30375 10.8 0.675 10.8H23.625C23.9963 10.8 24.3 11.1038 24.3 11.475V12.825C24.3 13.1963 23.9963 13.5 23.625 13.5H3.375C3.00375 13.5 2.7 13.8038 2.7 14.175V15.525C2.7 15.8963 3.00375 16.2 3.375 16.2H20.925C21.2963 16.2 21.6 16.5038 21.6 16.875V18.225C21.6 18.5963 21.2963 18.9 20.925 18.9H0.675C0.30375 18.9 0 19.2038 0 19.575V20.925C0 21.2963 0.30375 21.6 0.675 21.6H18.225C18.5963 21.6 18.9 21.9038 18.9 22.275V23.625C18.9 23.9963 18.5963 24.3 18.225 24.3H5.4V35.1C5.4 39.5719 9.02813 43.2 13.5 43.2C17.9719 43.2 21.6 39.5719 21.6 35.1H32.4C32.4 39.5719 36.0281 43.2 40.5 43.2C44.9719 43.2 48.6 39.5719 48.6 35.1H52.65C53.3925 35.1 54 34.4925 54 33.75V31.05C54 30.3075 53.3925 29.7 52.65 29.7ZM13.5 39.15C11.2641 39.15 9.45 37.3359 9.45 35.1C9.45 32.8641 11.2641 31.05 13.5 31.05C15.7359 31.05 17.55 32.8641 17.55 35.1C17.55 37.3359 15.7359 39.15 13.5 39.15ZM40.5 39.15C38.2641 39.15 36.45 37.3359 36.45 35.1C36.45 32.8641 38.2641 31.05 40.5 31.05C42.7359 31.05 44.55 32.8641 44.55 35.1C44.55 37.3359 42.7359 39.15 40.5 39.15ZM47.25 21.6H35.1V12.15H38.8209L47.25 20.5791V21.6Z" fill="#F5486A"/>
</g>
<defs>
<clipPath id="clip0_1_9694">
<rect width="54" height="43.2" fill="white"/>
</clipPath>
</defs>
</svg>
