<svg width="48" height="32" viewBox="0 0 12 24" fill="none" xmlns="http://www.w3.org/2000/svg">
<g id="Icon">
<path id="Vector" d="M23.1091 2.4731C22.9735 1.99506 22.7091 1.55925 22.3421 1.20907C21.9752 0.858899 21.5185 0.606579 21.0176 0.477241C19.1836 0 11.8033 0 11.8033 0C11.8033 0 4.42264 0.0144828 2.58897 0.491724C2.08807 0.621082 1.63142 0.873412 1.26449 1.22359C0.897558 1.57376 0.633153 2.00956 0.497605 2.48759C-0.0571057 5.59724 -0.272313 10.3353 0.512781 13.3204C0.648329 13.7984 0.912733 14.2342 1.27966 14.5844C1.64659 14.9346 2.10325 15.1869 2.60415 15.3163C4.43796 15.7935 11.8184 15.7935 11.8184 15.7935C11.8184 15.7935 19.1989 15.7935 21.0328 15.3163C21.5337 15.1869 21.9903 14.9346 22.3572 14.5844C22.7242 14.2342 22.9886 13.7984 23.1241 13.3204C23.709 10.2065 23.8894 5.47131 23.1089 2.47324L23.1091 2.4731Z" fill="#FF0000"/>
<path id="Vector_2" d="M9.45422 11.2811L15.5769 7.8968L9.45422 4.51239V11.2811Z" fill="white"/>
</g>
</svg>
