<svg width="31" height="36" viewBox="0 0 24 28" fill="none" xmlns="http://www.w3.org/2000/svg">
<g id="Icon">
<path id="Vector" d="M17.7862 9.78946C19.5373 11.0406 21.6825 11.7767 23.9993 11.7767V7.32075C23.5608 7.32084 23.1235 7.27509 22.6945 7.18425V10.6917C20.3778 10.6917 18.2329 9.95568 16.4815 8.70468V17.7981C16.4815 22.3471 12.7919 26.0345 8.24088 26.0345C6.54279 26.0345 4.96441 25.5214 3.65332 24.6413C5.14976 26.1707 7.23663 27.1193 9.54532 27.1193C14.0967 27.1193 17.7864 23.432 17.7864 18.8827V9.78946H17.7862ZM19.3959 5.29397C18.501 4.31681 17.9134 3.054 17.7862 1.65787V1.08478H16.5498C16.861 2.85918 17.9227 4.37512 19.3959 5.29397ZM6.53182 21.1507C6.03184 20.4955 5.76157 19.6939 5.76279 18.8697C5.76279 16.7892 7.45038 15.1023 9.53248 15.1023C9.92043 15.1021 10.3061 15.1616 10.6759 15.2788V10.7232C10.2438 10.6641 9.80763 10.6388 9.37169 10.6481V14.1939C9.00169 14.0767 8.61581 14.0171 8.22766 14.0175C6.14566 14.0175 4.45816 15.7042 4.45816 17.785C4.45816 19.2563 5.30163 20.5301 6.53182 21.1507Z" fill="#FF004F"/>
<path id="Vector_2" d="M16.4816 8.70459C18.2331 9.95559 20.3778 10.6916 22.6946 10.6916V7.18415C21.4014 6.90881 20.2566 6.23343 19.3959 5.29397C17.9226 4.37503 16.8611 2.85909 16.5498 1.08478H13.302V18.8826C13.2946 20.9574 11.6099 22.6374 9.53234 22.6374C8.30816 22.6374 7.22047 22.0542 6.53169 21.1506C5.30169 20.5301 4.45812 19.2562 4.45812 17.7851C4.45812 15.7045 6.14562 14.0176 8.22762 14.0176C8.62653 14.0176 9.011 14.0797 9.37166 14.194V10.6482C4.90053 10.7406 1.30475 14.3919 1.30475 18.8827C1.30475 21.1244 2.20016 23.1566 3.65347 24.6415C4.96456 25.5214 6.54284 26.0347 8.24103 26.0347C12.7921 26.0347 16.4817 22.347 16.4817 17.7981V8.70468L16.4816 8.70459Z" fill="black"/>
<path id="Vector_3" d="M22.6945 7.18406V6.23588C21.5284 6.23764 20.3852 5.91123 19.3958 5.29397C20.2717 6.25229 21.4249 6.91315 22.6945 7.18425V7.18406ZM16.5497 1.08469C16.52 0.915151 16.4973 0.744479 16.4814 0.573094V0H11.997V17.798C11.9899 19.8727 10.3052 21.5527 8.2275 21.5527C7.63849 21.5535 7.05754 21.4159 6.53156 21.1507C7.22034 22.0542 8.30803 22.6373 9.53222 22.6373C11.6097 22.6373 13.2946 20.9575 13.3019 18.8827V1.08478H16.5497V1.08469ZM9.37181 10.6481V9.63853C8.99709 9.58731 8.6193 9.56169 8.24109 9.56184C3.68953 9.56184 0 13.2494 0 17.798C0 20.6497 1.45003 23.163 3.65353 24.6413C2.20022 23.1565 1.30481 21.1242 1.30481 18.8826C1.30481 14.3919 4.9005 10.7405 9.37181 10.6481Z" fill="#00F2EA"/>
</g>
</svg>
