<svg width="36" height="24" viewBox="0 0 50 32" fill="none" xmlns="http://www.w3.org/2000/svg">
<g id="Icon">
<path id="Vector" d="M48.1439 4.94621C47.8615 3.99012 47.3106 3.1185 46.5461 2.41815C45.7816 1.7178 44.8302 1.21316 43.7866 0.954483C39.9659 0 24.5902 0 24.5902 0C24.5902 0 9.21383 0.0289655 5.39369 0.983448C4.35015 1.24216 3.39879 1.74682 2.63435 2.44717C1.86991 3.14752 1.31907 4.01912 1.03668 4.97517C-0.11897 11.1945 -0.567318 20.6706 1.06829 26.6408C1.35069 27.5969 1.90153 28.4685 2.66597 29.1688C3.4304 29.8692 4.38176 30.3738 5.42531 30.6326C9.24575 31.587 24.6218 31.587 24.6218 31.587C24.6218 31.587 39.9978 31.587 43.8182 30.6326C44.8618 30.3738 45.8131 29.8692 46.5776 29.1688C47.342 28.4685 47.8928 27.5969 48.1752 26.6408C49.3938 20.413 49.7696 10.9426 48.1436 4.94648L48.1439 4.94621Z" fill="white"/>
<path id="Vector_2" d="M19.6953 22.5608L32.4508 15.7923L19.6953 9.02344V22.5608Z" fill="#F5486A"/>
</g>
</svg>

    