<svg width="27" height="31" viewBox="0 0 32 32" fill="none" xmlns="http://www.w3.org/2000/svg">
<g id="Icon">
<path id="Vector" d="M19.7501 10.6636C21.793 12.0902 24.2957 12.9295 26.9987 12.9295V7.84872C26.4871 7.84882 25.9769 7.79666 25.4764 7.69308V11.6924C22.7737 11.6924 20.2713 10.8532 18.2279 9.42673V19.7953C18.2279 24.9822 13.9234 29.1867 8.61388 29.1867C6.63277 29.1867 4.79133 28.6016 3.26172 27.5982C5.00756 29.342 7.44225 30.4237 10.1357 30.4237C15.4457 30.4237 19.7503 26.2192 19.7503 21.0321V10.6636H19.7501ZM21.6281 5.53772C20.584 4.42354 19.8984 2.98364 19.7501 1.39174V0.738281H18.3076C18.6707 2.76151 19.9094 4.49003 21.6281 5.53772ZM6.61997 23.618C6.03666 22.8709 5.72135 21.9569 5.72277 21.0172C5.72277 18.6449 7.69163 16.7215 10.1207 16.7215C10.5734 16.7212 11.0233 16.7891 11.4548 16.9227V11.7283C10.9506 11.6609 10.4418 11.6321 9.93316 11.6427V15.6857C9.50148 15.552 9.05129 15.4842 8.59845 15.4846C6.16945 15.4846 4.2007 17.4078 4.2007 19.7804C4.2007 21.458 5.18475 22.9104 6.61997 23.618Z" fill="white"/>
<path id="Vector_2" d="M18.2297 9.42662C20.2732 10.853 22.7753 11.6923 25.4782 11.6923V7.69297C23.9695 7.37902 22.6339 6.60893 21.6298 5.53772C19.9109 4.48992 18.6725 2.76141 18.3093 0.738281H14.5203V21.0318C14.5116 23.3977 12.5462 25.3133 10.1223 25.3133C8.69408 25.3133 7.42511 24.6483 6.62153 23.6179C5.18653 22.9104 4.20238 21.4579 4.20238 19.7805C4.20238 17.4082 6.17113 15.4847 8.60013 15.4847C9.06552 15.4847 9.51406 15.5554 9.93483 15.6858V11.6428C4.71852 11.7481 0.523438 15.9115 0.523438 21.0319C0.523438 23.5881 1.56808 25.9053 3.26361 27.5984C4.79322 28.6016 6.63455 29.1869 8.61577 29.1869C13.9254 29.1869 18.2298 24.9821 18.2298 19.7953V9.42673L18.2297 9.42662Z" fill="white"/>
</g>
</svg>
