<svg width="54" height="54" viewBox="0 0 54 54" fill="none" xmlns="http://www.w3.org/2000/svg">
<g id="Icon" clip-path="url(#clip0_1_9514)">
<path id="Vector" d="M45 15.75H41.0895C42.3617 14.6286 43.3715 13.241 44.0473 11.6856C44.7231 10.1302 45.0484 8.44517 45 6.75C45 6.15326 44.7629 5.58097 44.341 5.15901C43.919 4.73705 43.3467 4.5 42.75 4.5C42.1533 4.5 41.581 4.73705 41.159 5.15901C40.7371 5.58097 40.5 6.15326 40.5 6.75C40.5 12.6495 35.1653 14.6925 31.1085 15.3923C32.6058 12.7374 33.5072 9.78833 33.75 6.75C33.75 4.95979 33.0388 3.2429 31.773 1.97703C30.5071 0.711159 28.7902 0 27 0C25.2098 0 23.4929 0.711159 22.227 1.97703C20.9612 3.2429 20.25 4.95979 20.25 6.75C20.4928 9.78833 21.3942 12.7374 22.8915 15.3923C18.8347 14.6925 13.5 12.6495 13.5 6.75C13.5 6.15326 13.2629 5.58097 12.841 5.15901C12.419 4.73705 11.8467 4.5 11.25 4.5C10.6533 4.5 10.081 4.73705 9.65901 5.15901C9.23705 5.58097 9 6.15326 9 6.75C8.95165 8.44517 9.27692 10.1302 9.95273 11.6856C10.6285 13.241 11.6383 14.6286 12.9105 15.75H9C6.61305 15.75 4.32387 16.6982 2.63604 18.386C0.948212 20.0739 0 22.3631 0 24.75L0 27C0 28.1935 0.474106 29.3381 1.31802 30.182C2.16193 31.0259 3.30653 31.5 4.5 31.5V42.75C4.50357 45.7326 5.68998 48.592 7.79899 50.701C9.90801 52.81 12.7674 53.9964 15.75 54H38.25C41.2326 53.9964 44.092 52.81 46.201 50.701C48.31 48.592 49.4964 45.7326 49.5 42.75V31.5C50.6935 31.5 51.8381 31.0259 52.682 30.182C53.5259 29.3381 54 28.1935 54 27V24.75C54 22.3631 53.0518 20.0739 51.364 18.386C49.6761 16.6982 47.3869 15.75 45 15.75ZM27 4.5C27.5967 4.5 28.169 4.73705 28.591 5.15901C29.0129 5.58097 29.25 6.15326 29.25 6.75C28.9784 9.14136 28.2121 11.45 27 13.5293C25.7879 11.45 25.0216 9.14136 24.75 6.75C24.75 6.15326 24.9871 5.58097 25.409 5.15901C25.831 4.73705 26.4033 4.5 27 4.5V4.5ZM4.5 24.75C4.5 23.5565 4.97411 22.4119 5.81802 21.568C6.66193 20.7241 7.80653 20.25 9 20.25H24.75V27H4.5V24.75ZM9 42.75V31.5H24.75V49.5H15.75C13.9598 49.5 12.2429 48.7888 10.977 47.523C9.71116 46.2571 9 44.5402 9 42.75V42.75ZM45 42.75C45 44.5402 44.2888 46.2571 43.023 47.523C41.7571 48.7888 40.0402 49.5 38.25 49.5H29.25V31.5H45V42.75ZM29.25 27V20.25H45C46.1935 20.25 47.3381 20.7241 48.182 21.568C49.0259 22.4119 49.5 23.5565 49.5 24.75V27H29.25Z" fill="#F5486A"/>
</g>
<defs>
<clipPath id="clip0_1_9514">
<rect width="54" height="54" fill="white"/>
</clipPath>
</defs>
</svg>
