<svg width="32" height="32" viewBox="0 0 32 32" fill="none" xmlns="http://www.w3.org/2000/svg">
<g id="Icon">
<path id="Vector" d="M27.9996 16.5666V14.668C27.9996 11.4854 26.7353 8.43312 24.4849 6.18269C22.2345 3.93225 19.1822 2.66797 15.9996 2.66797C12.817 2.66797 9.76476 3.93225 7.51433 6.18269C5.26389 8.43312 3.99961 11.4854 3.99961 14.668V16.5666C2.60115 17.1824 1.45668 18.2599 0.757771 19.6187C0.0588655 20.9775 -0.152043 22.5352 0.160352 24.031C0.472748 25.5267 1.28949 26.8697 2.47384 27.8352C3.65819 28.8007 5.13826 29.3301 6.66628 29.3346C7.37352 29.3346 8.0518 29.0537 8.55189 28.5536C9.05199 28.0535 9.33294 27.3752 9.33294 26.668V18.668C9.33294 17.9607 9.05199 17.2824 8.55189 16.7824C8.0518 16.2823 7.37352 16.0013 6.66628 16.0013V14.668C6.66628 12.1926 7.64961 9.81864 9.39995 8.0683C11.1503 6.31797 13.5243 5.33464 15.9996 5.33464C18.475 5.33464 20.8489 6.31797 22.5993 8.0683C24.3496 9.81864 25.3329 12.1926 25.3329 14.668V16.0013C24.6257 16.0013 23.9474 16.2823 23.4473 16.7824C22.9472 17.2824 22.6663 17.9607 22.6663 18.668V26.668H18.6663C18.3127 26.668 17.9735 26.8084 17.7235 27.0585C17.4734 27.3085 17.3329 27.6477 17.3329 28.0013C17.3329 28.3549 17.4734 28.6941 17.7235 28.9441C17.9735 29.1942 18.3127 29.3346 18.6663 29.3346H25.3329C26.861 29.3301 28.341 28.8007 29.5254 27.8352C30.7097 26.8697 31.5265 25.5267 31.8389 24.031C32.1513 22.5352 31.9404 20.9775 31.2414 19.6187C30.5425 18.2599 29.3981 17.1824 27.9996 16.5666ZM6.66628 26.668C5.60541 26.668 4.58799 26.2465 3.83785 25.4964C3.0877 24.7463 2.66628 23.7288 2.66628 22.668C2.66628 21.6071 3.0877 20.5897 3.83785 19.8395C4.58799 19.0894 5.60541 18.668 6.66628 18.668V26.668ZM25.3329 26.668V18.668C26.3938 18.668 27.4112 19.0894 28.1614 19.8395C28.9115 20.5897 29.3329 21.6071 29.3329 22.668C29.3329 23.7288 28.9115 24.7463 28.1614 25.4964C27.4112 26.2465 26.3938 26.668 25.3329 26.668Z" fill="#ffff"/>
</g>
</svg>
